<?xml version="1.0" encoding="utf-8"?><svg xml:space="preserve" viewBox="0 0 100 100" y="0" x="0" xmlns="http://www.w3.org/2000/svg" id="Layer_1" version="1.1" width="47px" height="47px" xmlns:xlink="http://www.w3.org/1999/xlink" style="width:100%;height:100%;background-size:initial;background-repeat-y:initial;background-repeat-x:initial;background-position-y:initial;background-position-x:initial;background-origin:initial;background-image:initial;background-color:rgb(255, 255, 255);background-clip:initial;background-attachment:initial;animation-play-state:paused" ><g class="ldl-scale" style="transform-origin:50% 50%;transform:rotate(0deg) scale(0.8, 0.8);animation-play-state:paused" ><path fill="#e0e0e0" d="M92.5 45c-.1-7.7-3.7-18.5-6.8-22.3-.3-.4-1.1-.2-1.1.3V75.9c0 .9.8 1.6 1.8 1.6.9 0 1.6-.5 1.8-1.3l.1-.5c.2-.7.2-1.5.2-2.2L88 58.4c2.4-1.9 4.6-6 4.5-13.4z" style="fill:rgb(224, 224, 224);animation-play-state:paused" ></path>
<path fill="#e0e0e0" d="M17.9 26.9c0-.9-.4-1.7-1-1.7h-.1c-.5.1-.9.9-.9 1.7l-.3 8.5c0 .6-.4 1-.8 1s-.8-.5-.8-1l-.2-9.8c0-.7-.2-1.2-.6-1.5l-.1-.1H13h-.1-.1-.1-.1-.1l-.1.1c-.3.3-.6.9-.6 1.5l-.2 9.8c0 .6-.4 1-.8 1s-.8-.5-.8-1L9.7 27c0-.9-.4-1.7-.9-1.7h-.1c-.5 0-1 .7-1 1.7l-.3 9.6v3.2c0 2 1 3.6 2.3 4.2.5.3.9.5 1.2 1.2.2.6.3 1.1.3 1.7l-.5 24.8c0 2.4.9 4.4 2 4.4h.2c1.1 0 2-2 2-4.4 0-4.5-.5-24.8-.5-24.8 0-.6.1-1.2.3-1.7.3-.7.7-.9 1.2-1.2 1.3-.6 2.3-2.3 2.3-4.2v-3.2l-.3-9.7z" style="fill:rgb(224, 224, 224);animation-play-state:paused" ></path>
<circle fill="#e0e0e0" r="28.4" cy="50" cx="50.7" style="fill:rgb(224, 224, 224);animation-play-state:paused" ></circle>
<path stroke-miterlimit="10" stroke-width="2" stroke="#b3b4b4" fill="#e0e0e0" d="M66.7 36C70 39.7 72 44.6 72 50c0 11.8-9.5 21.3-21.3 21.3S29.4 61.8 29.4 50s9.5-21.3 21.3-21.3c6.4 0 12.1 2.8 16 7.3" style="stroke:rgb(179, 180, 180);fill:rgb(224, 224, 224);animation-play-state:paused" ></path>
<metadata xmlns:d="https://loading.io/stock/" style="animation-play-state:paused" ><d:name style="animation-play-state:paused" >food</d:name>
<d:tags style="animation-play-state:paused" >food,restaurant,food court,dish,gourmet,tableware,dinnerware,lunch,breakfast,brunch,cook,chef</d:tags>
<d:license style="animation-play-state:paused" >by</d:license>
<d:slug style="animation-play-state:paused" >c1mp6e</d:slug></metadata></g><!-- generated by https://loading.io/ --></svg>